<svg xmlns="http://www.w3.org/2000/svg" xmlns:xlink="http://www.w3.org/1999/xlink" width="3783" height="3782" viewBox="0 0 3783 3782">
  <metadata><?xpacket begin="﻿" id="W5M0MpCehiHzreSzNTczkc9d"?>
<x:xmpmeta xmlns:x="adobe:ns:meta/" x:xmptk="Adobe XMP Core 5.6-c142 79.160924, 2017/07/13-01:06:39        ">
   <rdf:RDF xmlns:rdf="http://www.w3.org/1999/02/22-rdf-syntax-ns#">
      <rdf:Description rdf:about=""/>
   </rdf:RDF>
</x:xmpmeta>
                                                                                                    
                                                                                                    
                                                                                                    
                                                                                                    
                                                                                                    
                                                                                                    
                                                                                                    
                                                                                                    
                                                                                                    
                                                                                                    
                                                                                                    
                                                                                                    
                                                                                                    
                                                                                                    
                                                                                                    
                                                                                                    
                                                                                                    
                                                                                                    
                                                                                                    
                                                                                                    
                           
<?xpacket end="w"?></metadata>
<defs>
    <style>
      .cls-1 {
        fill: #fff;
        fill-rule: evenodd;
        filter: url(#filter);
      }
    </style>
    <filter id="filter" x="1086.12" y="581.719" width="1611.76" height="2823.561" filterUnits="userSpaceOnUse">
      <feFlood result="flood" flood-color="#efefef"/>
      <feComposite result="composite" operator="in" in2="SourceGraphic"/>
      <feBlend result="blend" in2="SourceGraphic"/>
    </filter>
  </defs>
  <path class="cls-1" d="M2672.95,1088.08l-396.23,396.17a81.9,81.9,0,0,0-23.99,57.92v372.36a81.926,81.926,0,0,0,23.99,57.93l69.78,69.76a81.921,81.921,0,0,1,23.99,57.92v221.24a81.921,81.921,0,0,1-23.99,57.92l-64.64,64.62a81.944,81.944,0,0,0-23.99,57.93v208.67a81.871,81.871,0,0,1-24,57.92l-612.93,612.84a81.926,81.926,0,0,1-57.93,23.99H1262.14a81.926,81.926,0,0,1-57.93-23.99l-94.09-94.08a81.888,81.888,0,0,1-24-57.92V2816.82a81.871,81.871,0,0,1,24-57.92l269.47-269.44a81.93,81.93,0,0,0,24-57.92V1602.18a81.913,81.913,0,0,0-24-57.92l-14.72-14.72a81.921,81.921,0,0,1-23.99-57.92v-486.5a81.922,81.922,0,0,1,23.99-57.922l321.52-321.475a81.955,81.955,0,0,1,57.93-23.992h687.85a81.92,81.92,0,0,1,57.93,23.992l183.79,183.757a81.943,81.943,0,0,1,23.99,58.343l-0.94,182.754A81.9,81.9,0,0,1,2672.95,1088.08Z"/>
</svg>
