<svg xmlns="http://www.w3.org/2000/svg" width="3783" height="3782" viewBox="0 0 3783 3782">
  <metadata><?xpacket begin="﻿" id="W5M0MpCehiHzreSzNTczkc9d"?>
<x:xmpmeta xmlns:x="adobe:ns:meta/" x:xmptk="Adobe XMP Core 5.6-c142 79.160924, 2017/07/13-01:06:39        ">
   <rdf:RDF xmlns:rdf="http://www.w3.org/1999/02/22-rdf-syntax-ns#">
      <rdf:Description rdf:about=""/>
   </rdf:RDF>
</x:xmpmeta>
                                                                                                    
                                                                                                    
                                                                                                    
                                                                                                    
                                                                                                    
                                                                                                    
                                                                                                    
                                                                                                    
                                                                                                    
                                                                                                    
                                                                                                    
                                                                                                    
                                                                                                    
                                                                                                    
                                                                                                    
                                                                                                    
                                                                                                    
                                                                                                    
                                                                                                    
                                                                                                    
                           
<?xpacket end="w"?></metadata>
<defs>
    <style>
      .cls-1 {
        fill: #fff;
        fill-rule: evenodd;
      }
    </style>
  </defs>
  <path class="cls-1" d="M2841.01,1421.52v805.61a75.736,75.736,0,0,1-21.56,53.04l-169.14,172.52a75.771,75.771,0,0,0-21.56,53.04v209.06a75.9,75.9,0,0,1-17.37,48.42l-81.39,98.21a72.98,72.98,0,0,1-56.17,26.57H1922.6a72.878,72.878,0,0,1-52.02-21.96l-445.05-453.91a75.812,75.812,0,0,1-21.53-53.04v-103.8a75.857,75.857,0,0,0-21.54-53.04L963.546,1774.99a75.757,75.757,0,0,1-21.557-53.05V1031.78a75.745,75.745,0,0,1,21.557-53.048L988.5,953.259A72.872,72.872,0,0,1,1040.51,931.3h82.09a72.86,72.86,0,0,1,52.01,21.961l14.07,14.369a72.871,72.871,0,0,0,52.01,21.973H1763.5a72.849,72.849,0,0,0,52-21.973l49.67-50.653a72.775,72.775,0,0,1,52.01-21.966h407.57a72.775,72.775,0,0,1,52.01,21.966l442.69,451.5a75.8,75.8,0,0,1,21.56,53.05"/>
</svg>
