<svg xmlns="http://www.w3.org/2000/svg" width="5000" height="5000" viewBox="0 0 5000 5000">
  <metadata><?xpacket begin="﻿" id="W5M0MpCehiHzreSzNTczkc9d"?>
<x:xmpmeta xmlns:x="adobe:ns:meta/" x:xmptk="Adobe XMP Core 5.6-c142 79.160924, 2017/07/13-01:06:39        ">
   <rdf:RDF xmlns:rdf="http://www.w3.org/1999/02/22-rdf-syntax-ns#">
      <rdf:Description rdf:about=""/>
   </rdf:RDF>
</x:xmpmeta>
                                                                                                    
                                                                                                    
                                                                                                    
                                                                                                    
                                                                                                    
                                                                                                    
                                                                                                    
                                                                                                    
                                                                                                    
                                                                                                    
                                                                                                    
                                                                                                    
                                                                                                    
                                                                                                    
                                                                                                    
                                                                                                    
                                                                                                    
                                                                                                    
                                                                                                    
                                                                                                    
                           
<?xpacket end="w"?></metadata>
<defs>
    <style>
      .cls-1 {
        fill: #fff;
        fill-rule: evenodd;
      }
    </style>
  </defs>
  <path class="cls-1" d="M3514.84,2831.08l-358.33,358.73a68.784,68.784,0,0,1-48.68,20.19h-442.7a68.761,68.761,0,0,1-48.67-20.19l-235.52-235.77a68.779,68.779,0,0,0-48.67-20.19H2021.84a68.817,68.817,0,0,1-48.68-20.18l-487-487.55a68.938,68.938,0,0,1-20.16-48.73V2039.08a68.938,68.938,0,0,1,20.16-48.73l178.96-179.16a68.779,68.779,0,0,1,48.67-20.19H2608.1a68.784,68.784,0,0,1,48.68,20.19l252.02,252.3a68.811,68.811,0,0,0,48.67,20.18h372.5a68.779,68.779,0,0,1,48.67,20.19l136.18,136.32a68.956,68.956,0,0,1,20.16,48.73l0.02,493.44A68.938,68.938,0,0,1,3514.84,2831.08Z"/>
</svg>
